<?xml version="1.0" standalone="no"?>
<!DOCTYPE svg PUBLIC "-//W3C//DTD SVG 20010904//EN"
 "http://www.w3.org/TR/2001/REC-SVG-20010904/DTD/svg10.dtd">
<svg version="1.0" xmlns="http://www.w3.org/2000/svg"
 width="500.000000pt" height="500.000000pt" viewBox="0 0 500.000000 500.000000"
 preserveAspectRatio="xMidYMid meet">

<g transform="translate(0.000000,500.000000) scale(0.100000,-0.100000)"
fill="#000000" stroke="none">
<path d="M2191 3202 l-292 -177 6 -345 c4 -190 10 -348 13 -352 15 -14 594
-329 601 -326 4 2 137 82 295 178 l289 175 -7 215 c-3 118 -6 274 -6 345 l0
130 -217 120 c-119 66 -255 141 -303 167 l-86 47 -293 -177z m267 -447 c19
-71 36 -137 39 -145 3 -8 16 28 29 80 13 52 31 119 39 148 l16 52 64 0 c47 0
63 -3 60 -12 -2 -7 -33 -104 -70 -215 l-67 -203 -68 0 -69 0 -67 208 c-36 114
-68 211 -71 215 -3 4 26 7 63 5 l68 -3 34 -130z"/>
</g>
</svg>
